<svg width="19" height="18" viewBox="0 0 19 18" fill="none" xmlns="http://www.w3.org/2000/svg">
<path fill-rule="evenodd" clip-rule="evenodd" d="M1.20695e-05 8.99927C-0.00316426 10.9351 0.620672 12.82 1.77816 14.3717C2.61512 15.4984 3.70435 16.4135 4.95857 17.0436C6.21279 17.6736 7.59715 18.0012 9.00074 18C10.4044 18.0017 11.7889 17.6743 13.0432 17.0442C14.2975 16.4141 15.3867 15.4988 16.2233 14.3717C17.0734 13.2286 17.64 11.9 17.8765 10.4952C18.1131 9.09039 18.0128 7.64952 17.5839 6.29104C17.155 4.93256 16.4098 3.69528 15.4096 2.68094C14.4093 1.66659 13.1826 0.904158 11.8303 0.456322C10.4779 0.00848624 9.03859 -0.111958 7.63062 0.104894C6.22266 0.321745 4.88627 0.869698 3.73135 1.7037C2.57643 2.53769 1.63597 3.63392 0.987289 4.90223C0.33861 6.17053 0.000242954 7.5747 1.20695e-05 8.99927ZM9.00074 11.9995C11.748 11.9995 14.2602 12.4715 15.5633 13.5766C16.3997 12.3772 16.8915 10.9714 16.985 9.51202C17.0785 8.05267 16.7703 6.5956 16.0939 5.29914C15.4174 4.00268 14.3985 2.91641 13.148 2.15839C11.8974 1.40037 10.4631 0.999581 9.00074 0.999581C7.5384 0.999581 6.10403 1.40037 4.85349 2.15839C3.60296 2.91641 2.5841 4.00268 1.90762 5.29914C1.23115 6.5956 0.922935 8.05267 1.01648 9.51202C1.11002 10.9714 1.60174 12.3772 2.43821 13.5766C3.74031 12.4715 6.25352 11.9995 9.00074 11.9995ZM14.9412 14.3597C14.1917 15.192 13.2755 15.8572 12.252 16.3121C11.2285 16.767 10.1207 17.0013 9.00074 16.9999C7.88073 17.0013 6.77296 16.767 5.74949 16.3121C4.72601 15.8572 3.80974 15.192 3.06026 14.3597C4.02234 13.5176 6.18051 12.9996 9.00074 12.9996C11.821 12.9996 13.9791 13.5186 14.9412 14.3597ZM9.00074 10.9994C8.0061 10.9994 7.05219 10.6043 6.34887 9.90099C5.64556 9.19767 5.25043 8.24377 5.25043 7.24913C5.25043 6.25448 5.64556 5.30058 6.34887 4.59726C7.05219 3.89394 8.0061 3.49882 9.00074 3.49882C9.99538 3.49882 10.9493 3.89394 11.6526 4.59726C12.3559 5.30058 12.751 6.25448 12.751 7.24913C12.751 8.24377 12.3559 9.19767 11.6526 9.90099C10.9493 10.6043 9.99538 10.9994 9.00074 10.9994ZM11.751 7.24913C11.751 7.97853 11.4612 8.67806 10.9454 9.19383C10.4297 9.70959 9.73014 9.99935 9.00074 9.99935C8.27133 9.99935 7.5718 9.70959 7.05604 9.19383C6.54027 8.67806 6.25052 7.97853 6.25052 7.24913C6.25052 6.51972 6.54027 5.82019 7.05604 5.30443C7.5718 4.78866 8.27133 4.4989 9.00074 4.4989C9.73014 4.4989 10.4297 4.78866 10.9454 5.30443C11.4612 5.82019 11.751 6.51972 11.751 7.24913Z" fill="black"/>
</svg>
