<svg width="16" height="16" viewBox="0 0 16 16" fill="none" xmlns="http://www.w3.org/2000/svg">
<path d="M13.3777 8.50862C13.3777 10.9542 16 11.7185 16 11.7694C16 11.8204 15.5629 12.8903 14.6264 14.0112C13.8147 15.0302 13.003 15.9982 11.6294 15.9982C10.3183 15.9982 9.8812 15.3869 8.38272 15.3869C6.88424 15.3869 6.44718 15.9982 5.19845 15.9982C3.88728 16.0492 2.88829 14.9793 2.07662 14.0112C0.390824 12.0242 -0.920347 8.35577 0.827881 5.91018C1.702 4.68739 3.26291 3.92314 4.88627 3.92314C6.19744 3.87219 7.38373 4.58549 8.13298 4.58549C8.88222 4.58549 10.3807 3.77029 11.8792 3.87219C12.566 3.87219 14.3142 4.07599 15.5005 5.45163C15.3756 5.50258 13.3152 6.47063 13.3777 8.50862ZM10.8802 2.54749C11.567 1.88514 12.0665 0.917097 11.9416 0C10.9426 0.0509498 9.75633 0.560448 9.00709 1.2228C8.65164 1.55678 8.38043 1.94472 8.209 2.36437C8.03758 2.78403 7.96931 3.22716 8.0081 3.66839C9.06953 3.77029 10.1934 3.20984 10.8802 2.54749Z" fill="black"/>
</svg>
