<svg width="44" height="36" viewBox="0 0 44 36" fill="none" xmlns="http://www.w3.org/2000/svg">
<path d="M43.0764 10.3007H20.4146L28.744 0.870736C28.9845 0.389949 28.7435 0 28.206 0H15.9363C14.7078 0.000245508 13.0933 2.47415 12.2915 3.37067C10.8809 4.94748 0.257416 16.7563 0.180326 16.9103C-0.0601086 17.3911 -0.0601086 18.1709 0.180326 18.6517L14.5275 35.0158C14.7679 35.4966 15.3987 35.8865 15.9363 35.8865H28.2061C28.7437 35.8865 28.9847 35.4966 28.7442 35.0158L20.6632 25.6581H43.0764C43.5866 25.6581 44 25.2446 44 24.7346V11.2242C44 10.7141 43.5866 10.3007 43.0764 10.3007Z" fill="#3A363A"/>
</svg>
