<svg width="16" height="16" viewBox="0 0 16 16" fill="none" xmlns="http://www.w3.org/2000/svg">
<mask id="mask0_913_95" style="mask-type:alpha" maskUnits="userSpaceOnUse" x="0" y="0" width="16" height="16">
<path fill-rule="evenodd" clip-rule="evenodd" d="M0 0H16V16H0V0Z" fill="white"/>
</mask>
<g mask="url(#mask0_913_95)">
<path fill-rule="evenodd" clip-rule="evenodd" d="M15.9989 8.04923C15.9988 6.511 15.5607 5.005 14.7363 3.70954C13.9119 2.41408 12.7358 1.38341 11.3473 0.739544C9.95872 0.0956819 8.41589 -0.134403 6.90142 0.0765297C5.38694 0.287462 3.96426 0.930579 2.80179 1.92974C1.63933 2.9289 0.785777 4.24226 0.342183 5.71432C-0.101411 7.18639 -0.116465 8.75551 0.298802 10.2359C0.714069 11.7163 1.54227 13.046 2.68534 14.0676C3.82842 15.0891 5.2385 15.7597 6.74864 16V10.3763H4.71742V8.04923H6.74864V6.27573C6.74864 4.25896 7.94249 3.14459 9.77103 3.14459C10.6458 3.14459 11.5614 3.30111 11.5614 3.30111V5.2821H10.5524C9.55858 5.2821 9.24834 5.90278 9.24834 6.53956V8.04923H11.4671L11.1124 10.3763H9.24834V16.0009C13.0743 15.3972 15.9989 12.0667 15.9989 8.04923Z" fill="#1877F2"/>
<path fill-rule="evenodd" clip-rule="evenodd" d="M11.1129 10.3763L11.4685 8.04917H9.24878V6.5395C9.24878 5.90272 9.55902 5.28204 10.5529 5.28204H11.5618V3.30104C11.5618 3.30104 10.6462 3.14453 9.77059 3.14453C7.94293 3.14453 6.7482 4.2589 6.7482 6.27567V8.04917H4.71875V10.3763H6.74997V16.0009C7.57814 16.1317 8.42151 16.1317 9.24967 16.0009V10.3745H11.1138L11.1129 10.3763Z" fill="white"/>
</g>
</svg>
