<?xml version="1.0" standalone="no"?>
<!DOCTYPE svg PUBLIC "-//W3C//DTD SVG 20010904//EN"
 "http://www.w3.org/TR/2001/REC-SVG-20010904/DTD/svg10.dtd">
<svg version="1.0" xmlns="http://www.w3.org/2000/svg"
 width="986.000000pt" height="931.000000pt" viewBox="0 0 986.000000 931.000000"
 preserveAspectRatio="xMidYMid meet">

<g transform="translate(0.000000,931.000000) scale(0.100000,-0.100000)"
fill="#000000" stroke="none">
<path d="M2761 9221 l-75 -69 50 -58 c210 -245 575 -732 835 -1114 110 -162
107 -155 83 -146 -10 5 -57 19 -104 32 -77 22 -123 31 -230 49 -68 11 -286 13
-365 4 -491 -56 -948 -341 -1219 -760 l-17 -26 93 -7 c289 -23 465 -77 848
-261 237 -114 345 -156 434 -169 l49 -8 -40 -41 c-251 -266 -399 -582 -444
-952 -13 -105 -7 -396 10 -470 5 -22 12 -57 15 -78 l7 -38 62 53 c34 29 70 61
82 71 49 45 210 144 315 196 152 74 165 79 404 161 313 107 394 149 511 261
l60 58 21 -87 c94 -375 332 -716 660 -944 111 -78 273 -160 411 -208 62 -22
56 -28 123 109 89 179 137 330 166 524 16 105 20 343 9 445 -10 82 -50 246
-86 343 -35 96 -125 271 -176 342 -19 27 -33 50 -31 51 2 2 35 11 73 20 111
27 240 95 452 237 109 73 218 143 243 157 25 14 64 35 87 48 124 68 327 139
485 170 l87 17 -59 67 c-230 258 -594 461 -945 526 -74 14 -147 19 -278 19
-97 0 -177 1 -177 1 0 1 16 28 35 60 19 32 82 152 139 268 156 314 262 466
455 647 58 54 103 100 100 102 -10 9 -232 68 -308 82 -266 49 -607 20 -856
-73 -266 -100 -522 -283 -696 -500 -70 -87 -113 -152 -176 -268 -25 -47 -49
-82 -53 -77 -4 4 -40 58 -80 118 -109 164 -246 357 -414 580 -236 315 -471
605 -489 605 -7 -1 -45 -32 -86 -69z"/>
<path d="M6264 8704 c-24 -13 -107 -77 -198 -154 -84 -71 -211 -213 -273 -305
-42 -63 -135 -227 -131 -230 2 -1 57 -14 123 -30 369 -85 708 -277 977 -552
36 -37 150 -167 253 -288 185 -217 187 -219 159 -227 -15 -4 -118 -21 -228
-38 -537 -83 -666 -132 -1057 -400 -72 -50 -132 -90 -134 -90 -2 0 -27 -14
-55 -32 -35 -22 -50 -37 -46 -47 3 -9 28 -82 56 -163 84 -242 114 -470 98
-738 -14 -244 -90 -535 -193 -740 -69 -139 -206 -370 -219 -370 -16 0 -279 88
-366 122 -428 169 -816 521 -1019 925 l-41 82 -62 -28 c-35 -16 -146 -57 -248
-91 -274 -93 -403 -150 -535 -235 -109 -71 -190 -143 -473 -418 -68 -65 -127
-115 -131 -111 -4 5 -22 79 -40 164 -18 85 -48 227 -66 315 -41 195 -55 317
-55 472 0 311 72 605 217 893 40 80 73 145 73 146 0 0 -80 39 -177 87 -208
100 -336 146 -488 175 -140 27 -182 30 -510 38 -148 3 -271 7 -273 9 -1 1 43
73 98 159 55 85 100 158 100 161 0 10 -129 -78 -245 -168 -635 -490 -1005
-1161 -1107 -2012 -17 -145 -18 -711 0 -860 38 -327 71 -518 149 -845 188
-798 528 -1411 1084 -1956 339 -331 663 -560 1109 -783 560 -279 1191 -450
1845 -499 191 -14 767 -7 925 12 763 90 1344 258 1975 573 802 401 1490 1003
1970 1723 140 210 186 290 295 509 233 468 371 952 420 1471 11 110 15 548 6
600 -2 14 -7 66 -11 115 -16 215 -93 573 -184 850 -207 636 -444 1115 -769
1555 -533 721 -1236 1145 -2062 1244 -114 14 -175 18 -335 21 -137 3 -178 0
-201 -11z"/>
</g>
</svg>
