<svg width="44" height="44" viewBox="0 0 44 44" fill="none" xmlns="http://www.w3.org/2000/svg">
<path d="M42.1405 16.3902H38.7089C38.4304 15.6386 38.1519 14.887 37.7836 14.235L40.2001 11.7991C40.9457 11.0566 40.9457 9.93373 40.2001 9.18214L34.8101 3.74892C34.0735 2.99732 32.9596 2.99732 32.214 3.74892L29.7076 6.27537C29.0608 5.99465 28.3152 5.71393 27.6684 5.43322V1.87446C27.6684 0.842149 26.833 0 25.8089 0H18.1911C17.167 0 16.3316 0.842149 16.3316 1.87446V5.234C15.5949 5.51471 14.9392 5.79543 14.2924 6.07615L11.786 3.5497C11.0494 2.79811 9.93548 2.79811 9.18987 3.5497L3.79992 8.98292C3.05431 9.72546 3.05431 10.8483 3.79992 11.5999L6.21641 14.0358C5.8481 14.7874 5.56962 15.4394 5.29114 16.191H1.85953C0.835443 16.191 0 17.0331 0 18.0654V25.7444C0 26.7767 0.835443 27.6189 1.85953 27.6189H5.01266C5.29114 28.3704 5.56962 29.113 5.93793 29.8646L3.62025 32.2009C3.25194 32.5721 2.5782 33.6769 3.62025 34.8179L9.01021 40.2511C9.74684 41.0027 10.8608 41.0027 11.6064 40.2511L13.8342 38.0053C14.5708 38.4762 15.3165 38.7569 16.1519 39.0377V42.1255C16.1519 43.1578 16.9873 44 18.0114 44H25.6292C26.6533 44 27.4888 43.1579 27.3989 42.3248V39.2369C28.1356 38.9562 28.971 38.5758 29.7166 38.2046L31.9445 40.4503C32.6811 41.2019 33.795 41.2019 34.5406 40.4503L39.9306 35.0171C40.6762 34.2745 40.6762 33.1517 39.9306 32.4001L37.6129 30.0638C37.9812 29.3122 38.2597 28.5697 38.5382 27.8181H42.1405C43.1646 27.8181 44 26.9759 44 25.9436V18.2647C44 17.2324 43.1646 16.3902 42.1405 16.3902ZM40.0294 23.9786H37.2446C36.4091 23.9786 35.6725 24.54 35.4839 25.3822C35.1066 26.7858 34.6484 28.0988 33.9028 29.3122C33.4357 30.0638 33.6243 30.9965 34.1813 31.5579L36.1307 33.5229L33.3459 36.3301L31.4863 34.4557C30.9294 33.8037 30.0041 33.7041 29.2585 34.1749C27.9559 34.9265 26.6533 35.488 25.2609 35.8592C24.4255 36.0403 23.8685 36.7919 23.8685 37.6341V40.3507H19.871V40.3416H19.7811V37.625C19.7811 36.7829 19.2242 36.0403 18.3887 35.8502C16.9873 35.4789 15.5949 34.9175 14.3912 34.1659C13.6456 33.695 12.7203 33.8852 12.1633 34.4466L10.3038 36.3211L7.51899 33.5139L9.46836 31.5489C10.0253 30.8969 10.214 30.0547 9.74684 29.3031C9.00123 28.0897 8.44426 26.7767 8.16578 25.3731C7.98612 24.531 7.24051 23.9695 6.40506 23.9695H3.62025V19.9399H6.59371C7.42916 19.9399 8.16578 19.3785 8.35443 18.5363C8.63291 17.2233 9.18987 16.0008 9.93548 14.7874C10.4026 14.0358 10.214 13.1031 9.657 12.5417L7.51899 10.3865L10.3038 7.57934L12.4418 9.73451C13.0886 10.2959 13.9241 10.4861 14.6697 10.0152C15.8824 9.36324 17.0862 8.80181 18.3887 8.5211C19.2242 8.33999 19.7811 7.58839 19.7811 6.74624V3.65837H23.7787V6.84585C23.7787 7.688 24.3356 8.43054 25.1711 8.6207C26.4737 8.90142 27.7762 9.46285 28.8902 10.1148C29.6358 10.5857 30.561 10.3956 31.118 9.83412L33.3459 7.58839L36.1307 10.3956L33.9927 12.5507C33.3459 13.1122 33.247 14.0449 33.7142 14.7965C34.3699 15.9284 34.9269 17.2324 35.2952 18.5454C35.4749 19.3875 36.2205 19.949 37.0559 19.949H40.0294V23.9786Z" fill="black"/>
<path d="M21.8194 11.7988C16.2498 11.7988 11.6953 16.3899 11.6953 22.0042C11.6953 27.6185 16.2498 32.2096 21.8194 32.2096C27.398 32.2096 31.9436 27.6185 31.9436 22.0042C31.9436 16.3899 27.3891 11.7988 21.8194 11.7988ZM21.8194 28.5603C18.289 28.5603 15.3156 25.6535 15.3156 22.0042C15.3156 18.4455 18.1992 15.4481 21.8194 15.4481C25.4397 15.4481 28.3233 18.3549 28.3233 22.0042C28.3233 25.563 25.3499 28.5603 21.8194 28.5603Z" fill="black"/>
</svg>
