<svg width="14" height="14" viewBox="0 0 14 14" fill="none" xmlns="http://www.w3.org/2000/svg">
<path d="M8.94833 12.5619C9.21667 13.0436 9.51844 13.2177 10.087 13.2193C10.5949 13.2201 11.1891 12.8836 11.6542 12.3573C12.7696 11.0652 13.2222 9.66774 13.2222 7.20611C13.2222 3.65302 10.4323 0.780727 7 0.780727C3.56767 0.780727 0.777778 3.6538 0.777778 7.20611C0.777778 9.1306 1.23667 10.4719 2.121 10.856C2.716 11.1152 3.18656 11.1137 3.91456 10.9091C4.05067 10.8708 4.08333 10.8615 4.44733 10.7475C5.35578 10.4649 5.88622 10.3548 6.59478 10.3704C7.83533 10.3876 8.33467 10.9247 8.75078 12.0818L8.77256 12.1426C8.84956 12.3558 8.89467 12.4659 8.94833 12.5611V12.5619ZM8.26933 12.9429C7.85867 12.2067 7.92711 11.1699 6.58467 11.1511C4.71256 11.1097 3.64233 12.3675 1.81222 11.5727C0.363222 10.9435 0 8.94635 0 7.20611C0 3.22674 3.13444 0 7 0C10.8656 0 14 3.22674 14 7.20611C14 9.96052 13.4291 11.4939 12.2422 12.8687C11.7149 13.4652 10.9254 14.0008 10.0854 14C9.24544 13.9977 8.68 13.6791 8.26933 12.9429Z" fill="#808080"/>
<path fill-rule="evenodd" clip-rule="evenodd" d="M6.92972 3.51336C6.72344 3.51336 6.52561 3.4311 6.37975 3.28469C6.23389 3.13827 6.15195 2.93969 6.15195 2.73263C6.15195 2.52557 6.23389 2.32699 6.37975 2.18057C6.52561 2.03416 6.72344 1.9519 6.92972 1.9519C7.136 1.9519 7.33383 2.03416 7.4797 2.18057C7.62556 2.32699 7.7075 2.52557 7.7075 2.73263C7.7075 2.93969 7.62556 3.13827 7.4797 3.28469C7.33383 3.4311 7.136 3.51336 6.92972 3.51336ZM9.4295 4.42681C9.35126 4.36088 9.28673 4.28014 9.23958 4.18918C9.19243 4.09822 9.16359 3.99882 9.1547 3.89668C9.14582 3.79453 9.15707 3.69162 9.1878 3.59384C9.21854 3.49605 9.26816 3.4053 9.33384 3.32676C9.39951 3.24823 9.47995 3.18345 9.57057 3.13612C9.66119 3.08879 9.7602 3.05984 9.86197 3.05092C9.96373 3.04201 10.0662 3.0533 10.1637 3.08415C10.2611 3.115 10.3515 3.16481 10.4297 3.23074C10.5877 3.36388 10.6866 3.55457 10.7045 3.76087C10.7225 3.96717 10.658 4.17217 10.5254 4.33078C10.3928 4.48939 10.2028 4.58861 9.99726 4.60662C9.79174 4.62463 9.58751 4.55995 9.4295 4.42681ZM10.7595 6.73932C10.7417 6.63833 10.7439 6.53482 10.766 6.43469C10.7881 6.33456 10.8296 6.23978 10.8882 6.15576C10.9468 6.07173 11.0213 6.00011 11.1074 5.94498C11.1936 5.88986 11.2897 5.8523 11.3903 5.83446C11.4909 5.81662 11.594 5.81885 11.6938 5.84101C11.7935 5.86318 11.8879 5.90485 11.9716 5.96364C12.0553 6.02244 12.1267 6.09721 12.1816 6.18368C12.2365 6.27016 12.274 6.36664 12.2917 6.46763C12.3276 6.67159 12.2813 6.8815 12.163 7.0512C12.0447 7.22089 11.8641 7.33646 11.6609 7.37249C11.4578 7.40852 11.2486 7.36205 11.0796 7.24331C10.9105 7.12457 10.7954 6.94328 10.7595 6.73932ZM10.2983 9.36881C10.349 9.27931 10.4168 9.20075 10.4979 9.13766C10.5789 9.07458 10.6716 9.02821 10.7706 9.00124C10.8696 8.97426 10.9729 8.9672 11.0747 8.98048C11.1764 8.99375 11.2745 9.02708 11.3633 9.07857C11.4521 9.13005 11.53 9.19866 11.5923 9.28045C11.6546 9.36224 11.7001 9.45559 11.7264 9.55514C11.7526 9.65468 11.7589 9.75844 11.745 9.86046C11.7311 9.96247 11.6973 10.0607 11.6454 10.1495C11.5415 10.3274 11.3718 10.4568 11.1732 10.5095C10.9747 10.5622 10.7634 10.5339 10.5855 10.4308C10.4076 10.3277 10.2776 10.1582 10.2238 9.95925C10.17 9.76029 10.1968 9.54803 10.2983 9.36881ZM3.10072 6.73932C3.08295 6.84031 3.04554 6.9368 2.99062 7.02327C2.9357 7.10975 2.86435 7.18452 2.78064 7.24331C2.69693 7.30211 2.60251 7.34378 2.50276 7.36594C2.40301 7.38811 2.29989 7.39033 2.19928 7.37249C2.09867 7.35465 2.00255 7.3171 1.9164 7.26197C1.83026 7.20684 1.75577 7.13522 1.6972 7.0512C1.63862 6.96717 1.59711 6.87239 1.57503 6.77226C1.55295 6.67213 1.55073 6.56862 1.5685 6.46763C1.60439 6.26367 1.71953 6.08238 1.88859 5.96364C2.05764 5.8449 2.26676 5.79843 2.46995 5.83446C2.67313 5.87049 2.85374 5.98606 2.97203 6.15576C3.09032 6.32545 3.13662 6.53537 3.10072 6.73932ZM4.43072 4.42681C4.27271 4.55995 4.06849 4.62463 3.86297 4.60662C3.65745 4.58861 3.46747 4.48939 3.33484 4.33078C3.2022 4.17217 3.13776 3.96717 3.1557 3.76087C3.17364 3.55457 3.27249 3.36388 3.4305 3.23074C3.58909 3.10279 3.79131 3.04232 3.99379 3.06228C4.19628 3.08225 4.38291 3.18107 4.51367 3.33754C4.64442 3.49402 4.70888 3.6957 4.69323 3.89932C4.67758 4.10295 4.58306 4.29232 4.42995 4.42681H4.43072Z" fill="#808080"/>
</svg>
